<?xml version="1.0" encoding="utf-8"?>
<!-- Generator: Adobe Illustrator 16.0.0, SVG Export Plug-In . SVG Version: 6.00 Build 0)  -->
<!DOCTYPE svg PUBLIC "-//W3C//DTD SVG 1.1//EN" "http://www.w3.org/Graphics/SVG/1.1/DTD/svg11.dtd">
<svg version="1.1" id="all_type" xmlns="http://www.w3.org/2000/svg" xmlns:xlink="http://www.w3.org/1999/xlink" x="0px" y="0px"
	 width="45.354px" height="45.354px" viewBox="0 0 45.354 45.354" enable-background="new 0 0 45.354 45.354" xml:space="preserve">
<g id="csv">
	<path fill="#898989" d="M8.537,16.537c-1.453,0-2.58,0.545-3.376,1.636c-0.794,1.092-1.194,2.613-1.194,4.562
		c0,4.056,1.522,6.083,4.57,6.083c1.275,0,2.822-0.316,4.639-0.959v3.236c-1.492,0.621-3.161,0.932-5.001,0.932
		c-2.647,0-4.672-0.803-6.072-2.404C0.7,28.017,0,25.712,0,22.709c0-1.892,0.342-3.547,1.03-4.972
		c0.689-1.422,1.681-2.513,2.968-3.271c1.291-0.758,2.805-1.138,4.539-1.138c1.766,0,3.541,0.427,5.322,1.28l-1.243,3.136
		c-0.681-0.323-1.363-0.605-2.053-0.847C9.875,16.657,9.2,16.537,8.537,16.537z"/>
	<path fill="#898989" d="M27.783,26.728c0,1.645-0.592,2.938-1.772,3.881c-1.185,0.947-2.827,1.418-4.935,1.418
		c-1.94,0-3.658-0.363-5.151-1.094v-3.584c1.228,0.547,2.267,0.936,3.117,1.158c0.849,0.223,1.628,0.336,2.333,0.336
		c0.847,0,1.497-0.162,1.947-0.484c0.451-0.324,0.681-0.805,0.681-1.443c0-0.355-0.102-0.676-0.301-0.953
		c-0.196-0.277-0.491-0.545-0.874-0.803c-0.388-0.258-1.172-0.668-2.362-1.23c-1.109-0.523-1.943-1.025-2.498-1.505
		c-0.558-0.48-1.002-1.041-1.333-1.679c-0.332-0.641-0.499-1.388-0.499-2.242c0-1.609,0.547-2.874,1.638-3.795
		c1.09-0.921,2.599-1.381,4.523-1.381c0.945,0,1.846,0.111,2.708,0.336c0.855,0.224,1.753,0.539,2.689,0.944l-1.243,2.998
		c-0.97-0.396-1.771-0.676-2.406-0.833c-0.635-0.158-1.258-0.236-1.872-0.236c-0.733,0-1.292,0.17-1.681,0.51
		c-0.392,0.34-0.587,0.784-0.587,1.331c0,0.34,0.08,0.638,0.237,0.891c0.158,0.254,0.408,0.499,0.753,0.734
		c0.348,0.235,1.158,0.662,2.447,1.274c1.699,0.813,2.865,1.628,3.496,2.444C27.467,24.54,27.783,25.542,27.783,26.728z"/>
	<path fill="#898989" d="M41.457,13.589h3.896l-6.185,18.19H34.96l-6.168-18.19h3.894l3.422,10.827
		c0.188,0.639,0.389,1.383,0.595,2.232c0.199,0.852,0.327,1.441,0.375,1.773c0.094-0.766,0.405-2.102,0.938-4.008L41.457,13.589z"/>
</g>
</svg>
