<?xml version="1.0" encoding="utf-8"?>
<!-- Generator: Adobe Illustrator 16.0.0, SVG Export Plug-In . SVG Version: 6.00 Build 0)  -->
<!DOCTYPE svg PUBLIC "-//W3C//DTD SVG 1.1//EN" "http://www.w3.org/Graphics/SVG/1.1/DTD/svg11.dtd">
<svg version="1.1" id="all_type" xmlns="http://www.w3.org/2000/svg" xmlns:xlink="http://www.w3.org/1999/xlink" x="0px" y="0px"
	 width="45.354px" height="45.354px" viewBox="0 0 45.354 45.354" enable-background="new 0 0 45.354 45.354" xml:space="preserve">
<g id="dropbox">
	<g>
		<polygon fill="#898989" points="45.354,10.343 32.132,1.599 22.677,9.205 36.195,17.532 22.677,25.862 32.132,33.468 
			45.354,24.724 36.427,17.532 		"/>
		<polygon fill="#898989" points="22.677,9.205 13.222,1.599 0,10.343 8.927,17.532 0,24.724 13.222,33.468 22.677,25.862 
			9.159,17.532 		"/>
	</g>
	<polygon fill="#898989" points="36.207,32.949 32.297,35.508 22.725,27.768 22.725,27.69 22.677,27.727 22.629,27.69 
		22.629,27.768 13.056,35.508 9.147,32.949 9.147,35.723 22.629,43.699 22.629,43.755 22.677,43.728 22.725,43.755 22.725,43.699 
		36.207,35.723 	"/>
</g>
</svg>
