<?xml version="1.0" encoding="utf-8"?>
<!-- Generator: Adobe Illustrator 16.0.0, SVG Export Plug-In . SVG Version: 6.00 Build 0)  -->
<!DOCTYPE svg PUBLIC "-//W3C//DTD SVG 1.1//EN" "http://www.w3.org/Graphics/SVG/1.1/DTD/svg11.dtd">
<svg version="1.1" id="all_type" xmlns="http://www.w3.org/2000/svg" xmlns:xlink="http://www.w3.org/1999/xlink" x="0px" y="0px"
	 width="45.354px" height="45.354px" viewBox="0 0 45.354 45.354" enable-background="new 0 0 45.354 45.354" xml:space="preserve">
<path id="link" fill="#898989" d="M22.677,0C35.35,0,45.354,10.004,45.354,22.677c0,12.674-10.004,22.677-22.677,22.677
	S0,35.351,0,22.677C0,10.004,10.004,0,22.677,0z M10.203,21.676c0.134-2.868,0.935-6.469,2.268-10.071
	c-2-0.867-3.804-1.801-5.203-2.801c-3.067,3.401-4.933,7.87-5.135,12.872H10.203z M2.133,23.678
	C2.336,28.679,4.2,33.149,7.268,36.55c1.399-1,3.203-1.935,5.203-2.801c-1.402-3.603-2.201-7.271-2.268-10.071H2.133z M16.941,2.868
	c-3.134,0.8-5.938,2.399-8.272,4.534c1.203,0.866,2.735,1.733,4.472,2.469C14.137,7.337,15.473,4.868,16.941,2.868z M8.668,37.949
	c2.336,2.136,5.14,3.735,8.272,4.47c-1.536-2.067-2.804-4.47-3.735-7.004C11.471,36.15,9.936,37.017,8.668,37.949z M21.676,14.14
	c-2.268-0.134-4.87-0.801-7.403-1.868c-1.201,3.135-1.934,6.271-2.067,9.404h9.472L21.676,14.14L21.676,14.14z M12.204,23.678
	c0.135,3.001,0.867,6.202,2.067,9.404c2.533-1.067,5.135-1.734,7.403-1.868v-7.536H12.204z M21.676,2.068
	c-0.668,0-1.334,0.066-2.068,0.2c-1.8,2.467-3.469,5.271-4.734,8.336c2.199,0.801,4.601,1.334,6.803,1.468V2.068z M21.676,33.281
	c-2.133,0.135-4.469,0.602-6.736,1.401c1.199,3.001,2.8,5.938,4.667,8.403c0.734,0.134,1.4,0.2,2.068,0.2L21.676,33.281
	L21.676,33.281z M23.676,12.073c2.203-0.134,4.602-0.667,6.804-1.468c-1.267-3.066-2.935-5.869-4.734-8.336
	c-0.731-0.134-1.4-0.2-2.068-0.2L23.676,12.073L23.676,12.073z M23.676,21.676h9.472c-0.132-3.134-0.867-6.27-2.067-9.404
	c-2.534,1.067-5.137,1.734-7.403,1.868L23.676,21.676L23.676,21.676z M23.676,23.678v7.536c2.268,0.134,4.869,0.801,7.403,1.868
	c1.2-3.202,1.937-6.403,2.067-9.404H23.676z M23.676,43.286c0.668,0,1.337-0.066,2.068-0.2c1.866-2.467,3.469-5.402,4.669-8.403
	c-2.269-0.801-4.603-1.268-6.737-1.401V43.286z M36.682,7.403c-2.333-2.135-5.135-3.734-8.269-4.534c1.468,2,2.801,4.469,3.8,7.003
	C33.948,9.137,35.482,8.269,36.682,7.403z M28.413,42.419c3.134-0.733,5.936-2.334,8.269-4.47c-1.266-0.934-2.8-1.801-4.533-2.534
	C31.214,37.949,29.946,40.352,28.413,42.419z M43.22,21.676c-0.201-5.001-2.07-9.471-5.137-12.872c-1.401,1-3.202,1.934-5.203,2.801
	c1.333,3.603,2.137,7.203,2.269,10.071H43.22z M35.149,23.678c-0.066,2.802-0.867,6.47-2.269,10.071
	c2.001,0.866,3.802,1.801,5.203,2.801c3.065-3.401,4.936-7.871,5.137-12.872H35.149z"/>
</svg>
