<?xml version="1.0" encoding="utf-8"?>
<!-- Generator: Adobe Illustrator 16.0.0, SVG Export Plug-In . SVG Version: 6.00 Build 0)  -->
<!DOCTYPE svg PUBLIC "-//W3C//DTD SVG 1.1//EN" "http://www.w3.org/Graphics/SVG/1.1/DTD/svg11.dtd">
<svg version="1.1" id="all_type" xmlns="http://www.w3.org/2000/svg" xmlns:xlink="http://www.w3.org/1999/xlink" x="0px" y="0px"
	 width="45.354px" height="45.354px" viewBox="0 0 45.354 45.354" enable-background="new 0 0 45.354 45.354" xml:space="preserve">
<path id="pdf" fill="#898989" d="M44.897,28.978l-0.201,0.102c-0.057-0.156-0.137-0.309-0.229-0.455
	c-1.003-1.574-3.737-2.375-8.139-2.375c-1.512,0-3.164,0.098-4.918,0.285c-1.238-0.715-2.371-1.48-3.358-2.271
	c-2.441-1.998-4.592-5.488-6.087-9.851c0.509-2.96,0.553-5.512,0.592-8.206l0.116-1.887c0.048-1.539,0.142-2.671-0.484-3.425
	c-0.464-0.563-1.12-0.848-2.027-0.848L19.797,0l-0.065,0.041l-0.439-0.004c-0.895,0-1.988,0.565-2.4,2.144
	c-0.787,2.932-0.396,7.811,0.996,12.531c-1.041,3.54-2.526,7.253-4.412,11.055C6.156,40.505,2.926,42.099,1.878,42.099
	c-0.114,0-0.208-0.018-0.313-0.061l-1.107,2.418l1.072,0.551c0.447,0.23,0.932,0.348,1.449,0.348c1.791,0,4.854-1.193,10.815-11.385
	c4.501-1.568,10.561-2.848,16.406-3.465c3.673,1.912,7.817,3.133,10.651,3.133c2.839,0,3.487-1.33,3.617-2.125l0.021-0.107
	l0.073,0.016c0.314-0.662,0.397-1.336,0.25-1.957L44.897,28.978z M17.096,27.945c1.33-2.563,2.387-4.95,3.195-7.222
	c1.392,2.664,3.078,4.878,4.972,6.507c0.094,0.078,0.18,0.15,0.276,0.23c-3.293,0.666-6.565,1.588-9.61,2.689
	C16.308,29.448,16.696,28.708,17.096,27.945z"/>
</svg>
