<?xml version="1.0" encoding="utf-8"?>
<!-- Generator: Adobe Illustrator 16.0.0, SVG Export Plug-In . SVG Version: 6.00 Build 0)  -->
<!DOCTYPE svg PUBLIC "-//W3C//DTD SVG 1.1//EN" "http://www.w3.org/Graphics/SVG/1.1/DTD/svg11.dtd">
<svg version="1.1" id="all_type" xmlns="http://www.w3.org/2000/svg" xmlns:xlink="http://www.w3.org/1999/xlink" x="0px" y="0px"
	 width="45.354px" height="45.354px" viewBox="0 0 45.354 45.354" enable-background="new 0 0 45.354 45.354" xml:space="preserve">
<g id="poerpoint">
	<path fill="#898989" d="M13.992,17.756c-0.315-0.073-0.023-0.109-0.981-0.109h-1.28v4.501h1.452c1.043,0,0.815-0.083,1.168-0.248
		c0.354-0.167,0.63-0.426,0.828-0.779c0.202-0.354,0.302-0.766,0.302-1.233c0-0.577-0.141-1.054-0.422-1.429
		C14.78,18.084,14.424,17.848,13.992,17.756z"/>
	<path fill="#898989" d="M45.354,4.897H28.423l0.023-4.813L0.109,5.444L0,40.13l28.229,5.141l0.031-6.674h17.094V4.897z
		 M18.7,22.301c-0.291,0.664-0.663,1.185-1.114,1.564c-0.45,0.379-0.909,0.631-1.375,0.752c-0.633,0.15-1.55,0.229-2.75,0.229
		h-1.729v5H8.889V14.764l4.445,0.199c1.611,0,2.664,0.08,3.154,0.239c0.754,0.236,1.382,0.755,1.892,1.552
		c0.506,0.797,0.761,1.827,0.761,3.09C19.141,20.817,18.994,21.636,18.7,22.301z M36.098,24.443c-3.96,0-7.169-3.211-7.169-7.169
		c0-3.933,3.165-7.121,7.091-7.166v7.085h7.243l0.003,0.081C43.266,21.231,40.057,24.443,36.098,24.443z M36.969,16.324V9.241
		c0.025,0,0.05-0.004,0.078-0.004c3.932,0,7.122,3.167,7.166,7.089h-7.244V16.324z"/>
</g>
</svg>
