<?xml version="1.0" encoding="utf-8"?>
<!-- Generator: Adobe Illustrator 16.0.0, SVG Export Plug-In . SVG Version: 6.00 Build 0)  -->
<!DOCTYPE svg PUBLIC "-//W3C//DTD SVG 1.1//EN" "http://www.w3.org/Graphics/SVG/1.1/DTD/svg11.dtd">
<svg version="1.1" id="all_type" xmlns="http://www.w3.org/2000/svg" xmlns:xlink="http://www.w3.org/1999/xlink" x="0px" y="0px"
	 width="45.354px" height="45.354px" viewBox="0 0 45.354 45.354" enable-background="new 0 0 45.354 45.354" xml:space="preserve">
<g id="safe">
	<g>
		<g>
			<path fill="#8A8A8A" d="M40.864,2.907c0.875,0,1.582,0.709,1.582,1.583v36.373c0,0.877-0.707,1.58-1.582,1.58H4.489
				c-0.871,0-1.583-0.705-1.583-1.58V4.49c0-0.871,0.709-1.583,1.583-1.583L40.864,2.907 M40.864,0.001H4.489
				C2.013,0.001,0,2.015,0,4.49v36.373c0,2.478,2.014,4.49,4.488,4.49h36.375c2.478,0,4.49-2.014,4.49-4.49V4.49
				C45.354,2.015,43.34,0.001,40.864,0.001L40.864,0.001z"/>
		</g>
	</g>
	<g>
		<g>
			<path fill="#8A8A8A" d="M9.015,38.365c-1.117,0-2.022-0.909-2.022-2.022V9.015c0-1.117,0.905-2.023,2.022-2.023h27.324
				c1.112,0,2.021,0.906,2.021,2.023v27.326c0,1.111-0.908,2.022-2.021,2.022L9.015,38.365L9.015,38.365z"/>
		</g>
		<g>
			<path fill="#8A8A8A" d="M36.339,8.445c0.314,0,0.565,0.253,0.565,0.57v27.326c0,0.313-0.248,0.565-0.565,0.565H9.015
				c-0.313,0-0.57-0.25-0.57-0.565V9.015c0-0.313,0.253-0.57,0.57-0.57H36.339 M36.339,5.537H9.015
				c-1.919,0-3.479,1.563-3.479,3.478v27.326c0,1.916,1.563,3.473,3.479,3.473h27.324c1.917,0,3.473-1.559,3.473-3.473V9.015
				C39.814,7.098,38.254,5.537,36.339,5.537L36.339,5.537z"/>
		</g>
	</g>
	<g>
		<g>
			<polygon fill="#BE1E2D" points="22.677,14.4 22.677,23.574 30.623,28.163 22.677,23.574 14.731,28.163 22.677,23.574 			"/>
			<path fill="#FFFFFF" d="M30.622,29.431c-0.216,0-0.433-0.053-0.634-0.166l-7.313-4.223l-7.314,4.223
				c-0.605,0.352-1.38,0.139-1.729-0.465c-0.116-0.199-0.169-0.422-0.169-0.635c0-0.437,0.229-0.863,0.635-1.101l7.313-4.222V14.4
				c0-0.7,0.569-1.269,1.269-1.269s1.267,0.568,1.267,1.269v8.443l7.313,4.222c0.406,0.234,0.633,0.66,0.633,1.101
				c0.001,0.215-0.054,0.436-0.167,0.635C31.488,29.202,31.063,29.431,30.622,29.431z"/>
		</g>
		<g>
			<g>
				<circle fill="#8A8A8A" cx="22.677" cy="23.802" r="4.566"/>
			</g>
			<g>
				<path fill="#FFFFFF" d="M22.677,20.687c1.717,0,3.119,1.395,3.119,3.117c0,1.717-1.397,3.113-3.119,3.113
					s-3.115-1.396-3.115-3.113C19.562,22.082,20.955,20.687,22.677,20.687 M22.677,17.781c-3.32,0-6.021,2.701-6.021,6.024
					c0,3.32,2.7,6.021,6.021,6.021c3.323,0,6.024-2.699,6.024-6.021C28.701,20.481,25.999,17.781,22.677,17.781L22.677,17.781z"/>
			</g>
		</g>
	</g>
</g>
</svg>
