<?xml version="1.0" encoding="utf-8"?>
<!-- Generator: Adobe Illustrator 16.0.0, SVG Export Plug-In . SVG Version: 6.00 Build 0)  -->
<!DOCTYPE svg PUBLIC "-//W3C//DTD SVG 1.1//EN" "http://www.w3.org/Graphics/SVG/1.1/DTD/svg11.dtd">
<svg version="1.1" id="all_type" xmlns="http://www.w3.org/2000/svg" xmlns:xlink="http://www.w3.org/1999/xlink" x="0px" y="0px"
	 width="45.354px" height="45.354px" viewBox="0 0 45.354 45.354" enable-background="new 0 0 45.354 45.354" xml:space="preserve">
<g id="solidw">
	<path id="XMLID_5_" fill="#898989" d="M41.036,15.752c-3.744-0.615-10.436-0.853-12.723,2.654
		c-1.766,2.708,1.573,6.418,4.612,10.013c2.438,2.878,5.089,5.63,4.006,7.234c-0.883,1.314-6.551,1.313-8.503,1.416
		c-2.371,0.125-5.788,0.134-6.383,0.458c-0.535,0.285-0.833,1.181,1.173,1.539c1.613,0.29,5.452,0.878,9.501,0.875
		c4.227,0,8.665-0.693,9.63-3.966c0.773-2.628-1.911-5.445-4.271-8.303c-2.58-3.128-5.198-5.357-4.978-7.574
		c0.167-1.723,3.548-1.822,9.156-1.92c1.164-0.021,3.485-0.077,3.04-0.998C44.901,16.369,43.164,16.1,41.036,15.752"/>
	<path id="XMLID_4_" fill="#898989" d="M23.785,23.554c-2.401-1.647-6.679-2.198-10.201-2.014c-3.137,0.165-8.528,1.163-8.325,2.154
		c0.19,1.073,3.604,0.74,5.167,0.74c3.439,0,8.897,0.209,9.757,2.425c1.855,4.775-10.717,13.35-13.397,12.524
		c-1.215-0.37,2.462-6.604,3.795-8.842c0.792-1.339,2.001-3.44,0.972-3.584c-1.153-0.159-2.422,1.819-3.246,2.961
		c-2.237,3.1-4.528,6.481-6.365,9.961c-0.569,1.073-2.453,4.306-1.808,4.723c0.604,0.39,3.479-0.164,7.137-1.613
		c11.498-4.552,16.675-10.483,18.062-15.385C25.82,25.878,24.979,24.374,23.785,23.554"/>
	<path id="XMLID_3_" fill="#898989" d="M15.249,2.622c-0.238-0.774,3.598-1.78,7.803-1.967c4.24-0.186,9.25,0.657,10.188,3.453
		c1.528,4.581-6.23,11.261-12.99,14.543c-1.659,0.804-2.662,1.024-3.083,0.969c-0.397-0.054-0.459-0.426-0.33-0.682
		c0.238-0.481,1.333-1.463,2.791-2.528c7.611-5.561,10.084-9.639,8.648-11.29c-0.924-1.061-4.78-1.797-8.788-1.797
		C18.4,3.323,15.542,3.559,15.249,2.622"/>
</g>
</svg>
