<?xml version="1.0" encoding="utf-8"?>
<!-- Generator: Adobe Illustrator 16.0.0, SVG Export Plug-In . SVG Version: 6.00 Build 0)  -->
<!DOCTYPE svg PUBLIC "-//W3C//DTD SVG 1.1//EN" "http://www.w3.org/Graphics/SVG/1.1/DTD/svg11.dtd">
<svg version="1.1" id="all_type" xmlns="http://www.w3.org/2000/svg" xmlns:xlink="http://www.w3.org/1999/xlink" x="0px" y="0px"
	 width="45.354px" height="45.354px" viewBox="0 0 45.354 45.354" enable-background="new 0 0 45.354 45.354" xml:space="preserve">
<g id="sound">
	<g>
		<path fill="#898989" d="M27.38,4.145L14.582,17.34H2.299c-1.271,0-2.298,1.026-2.298,2.297v3.025v3.029
			c0,1.271,1.028,2.297,2.298,2.297h12.283L27.38,41.181l0.105-18.519L27.38,4.145z"/>
	</g>
	<g>
		<path fill="#898989" d="M43.98,22.664c0-0.034,0-0.07,0-0.103c0-0.021,0-0.041-0.002-0.059c-0.063-5.472-2.1-9.721-3.813-12.337
			c-1.893-2.886-3.773-4.443-3.854-4.511c-0.369-0.3-0.918-0.245-1.221,0.124c-0.303,0.37-0.248,0.918,0.121,1.22
			c0.016,0.015,1.785,1.488,3.533,4.17c1.586,2.438,3.471,6.401,3.494,11.495c-0.023,5.092-1.908,9.058-3.494,11.493
			c-1.742,2.67-3.5,4.143-3.533,4.168c-0.369,0.307-0.424,0.853-0.121,1.222c0.168,0.211,0.418,0.319,0.674,0.319
			c0.189,0,0.387-0.063,0.547-0.198c0.08-0.063,1.961-1.621,3.854-4.504c1.713-2.62,3.748-6.871,3.813-12.337
			c0.002-0.021,0.002-0.041,0.002-0.06C43.98,22.731,43.98,22.695,43.98,22.664z"/>
		<path fill="#898989" d="M35.765,41.24c-0.688,0-1.326-0.307-1.75-0.841c-0.766-0.934-0.627-2.348,0.322-3.134
			c0.021-0.018,1.639-1.377,3.258-3.86c1.479-2.271,3.248-5.98,3.271-10.749c-0.023-4.749-1.793-8.462-3.273-10.737
			c-1.492-2.291-2.982-3.625-3.266-3.869c-0.445-0.362-0.732-0.898-0.793-1.495c-0.063-0.598,0.115-1.182,0.494-1.646
			c0.752-0.917,2.229-1.066,3.15-0.32c0.383,0.321,2.262,1.967,4.135,4.824c1.793,2.74,3.943,7.209,4.035,12.967l0.004,0.386
			c0,0.041,0,0.083-0.002,0.126c-0.08,5.78-2.238,10.271-4.037,13.022c-2.039,3.109-4.053,4.755-4.137,4.822
			C36.798,41.055,36.29,41.24,35.765,41.24z"/>
	</g>
</g>
</svg>
