<?xml version="1.0" encoding="utf-8"?>
<!-- Generator: Adobe Illustrator 16.0.0, SVG Export Plug-In . SVG Version: 6.00 Build 0)  -->
<!DOCTYPE svg PUBLIC "-//W3C//DTD SVG 1.1//EN" "http://www.w3.org/Graphics/SVG/1.1/DTD/svg11.dtd">
<svg version="1.1" id="all_type" xmlns="http://www.w3.org/2000/svg" xmlns:xlink="http://www.w3.org/1999/xlink" x="0px" y="0px"
	 width="45.354px" height="45.354px" viewBox="0 0 45.354 45.354" enable-background="new 0 0 45.354 45.354" xml:space="preserve">
<g id="video">
	<g>
		<path fill="#898989" d="M22.676,45.355C10.172,45.355,0,35.181,0,22.677C0,10.172,10.172-0.001,22.676-0.001
			c12.503,0,22.679,10.173,22.679,22.678C45.355,35.181,35.179,45.355,22.676,45.355z M22.676,3.628
			c-10.503,0-19.048,8.545-19.048,19.049c0,10.503,8.545,19.05,19.048,19.05c10.503,0,19.05-8.547,19.05-19.05
			C41.726,12.173,33.179,3.628,22.676,3.628z"/>
	</g>
	<g>
		<polygon fill="#898989" points="17.045,11.925 34.964,23.189 17.045,34.069 		"/>
	</g>
</g>
</svg>
