<?xml version="1.0" encoding="utf-8"?>
<!-- Generator: Adobe Illustrator 16.0.0, SVG Export Plug-In . SVG Version: 6.00 Build 0)  -->
<!DOCTYPE svg PUBLIC "-//W3C//DTD SVG 1.1//EN" "http://www.w3.org/Graphics/SVG/1.1/DTD/svg11.dtd">
<svg version="1.1" id="all_type" xmlns="http://www.w3.org/2000/svg" xmlns:xlink="http://www.w3.org/1999/xlink" x="0px" y="0px"
	 width="45.354px" height="45.354px" viewBox="0 0 45.354 45.354" enable-background="new 0 0 45.354 45.354" xml:space="preserve">
<g id="word">
	<path fill="#898989" d="M0.103,6.107L0,39.093L29.729,43.9V1.454L0.103,6.107z M19.635,29.493l-3.528-0.116l-2.405-9.112
		l-2.481,8.646l-3.141-0.037L4.706,16l3.219,0.039l1.822,9.113l2.56-9.462l3.215-0.04l2.444,10.276l2.25-10.664l3.564,0.155
		L19.635,29.493z"/>
	<path fill="#898989" d="M45.354,5.648H29.729V1.454L0.103,6.107L0,39.093L29.729,43.9v-3.922h15.625V5.648z M19.635,29.493
		l-3.528-0.116l-2.405-9.112l-2.481,8.646l-3.141-0.037L4.706,16l3.219,0.039l1.822,9.113l2.56-9.462l3.215-0.04l2.444,10.276
		l2.25-10.664l3.564,0.155L19.635,29.493z M39.504,34.943h-9.775V32.24h9.775V34.943z M39.504,27.737h-9.775v-2.702h9.775V27.737z
		 M39.504,20.528h-9.775v-2.701h9.775V20.528z M39.504,13.322h-9.775v-2.703h9.775V13.322z"/>
</g>
</svg>
