<?xml version="1.0" encoding="utf-8"?>
<!-- Generator: Adobe Illustrator 16.0.0, SVG Export Plug-In . SVG Version: 6.00 Build 0)  -->
<!DOCTYPE svg PUBLIC "-//W3C//DTD SVG 1.1//EN" "http://www.w3.org/Graphics/SVG/1.1/DTD/svg11.dtd">
<svg version="1.1" id="all_type" xmlns="http://www.w3.org/2000/svg" xmlns:xlink="http://www.w3.org/1999/xlink" x="0px" y="0px"
	 width="45.354px" height="45.354px" viewBox="0 0 45.354 45.354" enable-background="new 0 0 45.354 45.354" xml:space="preserve">
<g id="zip">
	<rect x="17.255" y="0" fill="#898989" width="5.422" height="5.422"/>
	<rect x="17.255" y="10.844" fill="#898989" width="5.422" height="5.422"/>
	<rect x="22.677" y="5.423" fill="#898989" width="5.422" height="5.422"/>
	<rect x="17.255" y="21.688" fill="#898989" width="5.422" height="5.422"/>
	<path fill="#898989" d="M30.81,3.597v34.359h-2.711h-5.422v-5.426h-5.422v5.426h-2.711V0H9.07C6.577,0,4.558,2.041,4.558,4.536
		l-0.022,36.28c0,2.494,2.02,4.539,4.514,4.539h27.233c2.494,0,4.535-2.045,4.535-4.539v-27.21L30.81,3.597z"/>
	<rect x="22.677" y="27.111" fill="#898989" width="5.422" height="5.422"/>
	<rect x="22.677" y="16.266" fill="#898989" width="5.422" height="5.422"/>
</g>
</svg>
